<svg xmlns="http://www.w3.org/2000/svg" width="1180" height="520" viewBox="0 0 1180 520" role="img" aria-labelledby="title desc">
<title id="title">muBench LLAPA campaign</title>
<desc id="desc">Three-phase campaign flow used to profile muBench with LLAPA.</desc>
<defs>
  <style>
    .bg { fill: #f7f7fb; }
    .title { font: 700 28px Arial, sans-serif; fill: #111827; }
    .label { font: 700 18px Arial, sans-serif; fill: #17212f; }
    .small { font: 500 14px Arial, sans-serif; fill: #4b5563; }
    .box { rx: 22; ry: 22; stroke-width: 3; }
    .arrow { stroke: #374151; stroke-width: 4; fill: none; marker-end: url(#m); }
  </style>
  <marker id="m" markerWidth="12" markerHeight="12" refX="10" refY="6" orient="auto">
    <path d="M0,0 L12,6 L0,12 z" fill="#374151"/>
  </marker>
</defs>
<rect class="bg" width="1180" height="520"/>
<text x="56" y="56" class="title">µBench update in the artifact</text>
<text x="56" y="88" class="small">The same LLAPA logic used for TeaStore is now applied to synthetic service graphs and configurable traffic models.</text>

<rect x="60" y="150" width="300" height="210" class="box" fill="#dbeafe" stroke="#2563eb"/>
<text x="88" y="192" class="label">Phase 1: deployment</text>
<text x="88" y="230" class="small">Deploy the selected architecture,</text>
<text x="88" y="254" class="small">capture infra PIDs, and measure image</text>
<text x="88" y="278" class="small">download / startup energy.</text>
<text x="88" y="318" class="small">Examples:</text>
<text x="88" y="344" class="small">`serial10_cpu`, `parallel10_cpu`</text>

<rect x="440" y="150" width="300" height="210" class="box" fill="#e6f4ea" stroke="#2f855a"/>
<text x="468" y="192" class="label">Phase 2: orchestrator prep</text>
<text x="468" y="230" class="small">Restart cluster services, re-sync</text>
<text x="468" y="254" class="small">supporting components, and record</text>
<text x="468" y="278" class="small">infrastructure-side energy cost.</text>

<rect x="820" y="150" width="300" height="210" class="box" fill="#fde7d8" stroke="#dd6b20"/>
<text x="848" y="192" class="label">Phase 3: functional load</text>
<text x="848" y="230" class="small">Run the µBench HTTP runner and</text>
<text x="848" y="254" class="small">attribute energy to the resulting</text>
<text x="848" y="278" class="small">execution profile.</text>
<text x="848" y="318" class="small">Examples:</text>
<text x="848" y="344" class="small">`greedy_moderate`, `greedy_intense`</text>

<path d="M360 255 H440" class="arrow"/>
<path d="M740 255 H820" class="arrow"/>

<rect x="340" y="410" width="500" height="64" rx="18" ry="18" fill="#111827"/>
<text x="368" y="450" font-family="Arial, sans-serif" font-size="20" font-weight="700" fill="#f9fafb">Result: LLAPA can profile both real apps and generated service-cell workloads</text>
</svg>
